<?xml version="1.0" encoding="utf-8"?>
<!-- Generator: Adobe Illustrator 25.4.1, SVG Export Plug-In . SVG Version: 6.00 Build 0)  -->
<svg version="1.1" id="Capa_1" xmlns="http://www.w3.org/2000/svg" xmlns:xlink="http://www.w3.org/1999/xlink" x="0px" y="0px"
	 viewBox="0 0 120 120" style="enable-background:new 0 0 120 120;" xml:space="preserve">
<style type="text/css">
	.st0{fill:none;stroke:#D5AC8C;stroke-width:7;stroke-miterlimit:10;}
	.st1{fill:#D5AC8C;}
</style>
<path class="st0" d="M110,60.3C110,32.5,87.6,10,60,10S10,32.5,10,60.3c0,25.1,18.3,45.9,42.2,49.7V74.8H39.5V60.3h12.7V49.2
	c0-12.6,7.5-19.6,18.9-19.6c5.5,0,11.2,1,11.2,1V43H76c-6.2,0-8.1,3.9-8.1,7.9v9.4h13.9l-2.2,14.5H67.8V110
	C91.7,106.2,110,85.4,110,60.3z"/>
<path class="st1" d="M-73.1,24.5c-9.4-9.4-21.8-14.5-35-14.5c-27.3,0-49.6,22.2-49.6,49.6c0,8.7,2.3,17.3,6.6,24.8l-7,25.7l26.3-6.9
	c7.2,4,15.4,6,23.7,6l0,0c27.3,0,50-22.2,50-49.6C-58.1,46.3-63.7,33.9-73.1,24.5z M-108.1,100.8c-7.4,0-14.7-2-21-5.7l-1.5-0.9
	l-15.6,4.1L-142,83l-1-1.6c-4.1-6.6-6.3-14.1-6.3-21.9c0-22.7,18.5-41.2,41.2-41.2c11,0,21.3,4.3,29.1,12.1s12.5,18.1,12.5,29.1
	C-66.5,82.3-85.4,100.8-108.1,100.8z M-85.6,69.9c-1.2-0.6-7.3-3.6-8.5-4c-1.1-0.4-2-0.6-2.8,0.6s-3.2,4-3.9,4.9
	c-0.7,0.8-1.5,0.9-2.7,0.3c-7.3-3.6-12.1-6.5-16.9-14.7c-1.3-2.2,1.3-2,3.6-6.8c0.4-0.8,0.2-1.5-0.1-2.2s-2.8-6.7-3.8-9.2
	c-1-2.4-2-2.1-2.8-2.1c-0.7,0-1.5,0-2.4,0c-0.8,0-2.2,0.3-3.3,1.5c-1.1,1.3-4.3,4.2-4.3,10.3s4.4,12,5,12.8
	c0.6,0.8,8.7,13.3,21.2,18.7c7.9,3.4,10.9,3.7,14.9,3.1c2.4-0.4,7.3-3,8.3-5.9s1-5.4,0.7-5.9C-83.5,70.8-84.3,70.5-85.6,69.9z"/>
<path class="st1" d="M-317.9,29.4c-14.2,0-25.6,11.4-25.6,25.6s11.4,25.6,25.6,25.6s25.6-11.4,25.6-25.6S-303.7,29.4-317.9,29.4z
	 M-317.9,71.7c-9.2,0-16.7-7.5-16.7-16.7s7.5-16.7,16.7-16.7s16.7,7.5,16.7,16.7S-308.7,71.7-317.9,71.7L-317.9,71.7z M-285.2,28.3
	c0,3.3-2.7,6-6,6s-6-2.7-6-6s2.7-6,6-6C-287.9,22.3-285.2,25-285.2,28.3z M-268.3,34.4c-0.4-8-2.2-15.1-8.1-21
	c-5.8-5.8-12.9-7.7-20.9-8.1c-8.3-0.5-33-0.5-41.2,0c-8,0.4-15.1,2.2-20.9,8.1c-5.9,5.8-7.7,12.9-8.1,21c-0.5,8.3-0.5,33,0,41.3
	c0.4,8,2.2,15.1,8.1,21c5.9,5.8,12.9,7.7,20.9,8.1c8.3,0.5,33,0.5,41.2,0c8-0.4,15.1-2.2,20.9-8.1c5.8-5.8,7.7-12.9,8.1-21
	C-267.8,67.4-267.8,42.6-268.3,34.4L-268.3,34.4z M-278.9,84.5c-1.7,4.4-5.1,7.7-9.5,9.5c-6.6,2.6-22.2,2-29.5,2s-22.9,0.6-29.5-2
	c-4.4-1.7-7.7-5.1-9.5-9.5c-2.6-6.6-2-22.2-2-29.5s-0.6-22.9,2-29.5c1.7-4.4,5.1-7.7,9.5-9.5c6.6-2.6,22.2-2,29.5-2s22.9-0.6,29.5,2
	c4.4,1.7,7.7,5.1,9.5,9.5c2.6,6.6,2,22.2,2,29.5S-276.3,77.9-278.9,84.5z"/>
</svg>
